<svg width="18" height="16" viewBox="0 0 18 16" fill="none" xmlns="http://www.w3.org/2000/svg">
<path d="M6.33551 13.9537C6.64863 13.9537 6.90246 13.6999 6.90246 13.3868C6.90246 13.0737 6.64863 12.8198 6.33551 12.8198C6.02239 12.8198 5.76855 13.0737 5.76855 13.3868C5.76855 13.6999 6.02239 13.9537 6.33551 13.9537Z" fill="#383838" stroke="#383838" stroke-width="1.65" stroke-linecap="round" stroke-linejoin="round"/>
<path d="M12.5721 13.9537C12.8852 13.9537 13.139 13.6999 13.139 13.3868C13.139 13.0737 12.8852 12.8198 12.5721 12.8198C12.259 12.8198 12.0051 13.0737 12.0051 13.3868C12.0051 13.6999 12.259 13.9537 12.5721 13.9537Z" fill="#383838" stroke="#383838" stroke-width="1.65" stroke-linecap="round" stroke-linejoin="round"/>
<path d="M1.80005 2.04736H4.06786L5.58729 9.63885C5.63913 9.89988 5.78113 10.1343 5.98843 10.3012C6.19573 10.4681 6.45512 10.5567 6.72119 10.5516H12.232C12.498 10.5567 12.7574 10.4681 12.9647 10.3012C13.172 10.1343 13.314 9.89988 13.3659 9.63885L14.273 4.88212H4.63481" stroke="#383838" stroke-width="1.65" stroke-linecap="round" stroke-linejoin="round"/>
<rect x="9.80005" y="0.800293" width="8" height="8" rx="4" fill="#F0CB23"/>
<path d="M15.4 4.8002L12.2 4.8002M13.8 3.2002L13.8 6.4002" stroke="#383838" stroke-width="1.65" stroke-linecap="round" stroke-linejoin="round"/>
</svg>
