<svg xmlns="http://www.w3.org/2000/svg" width="24" height="24" viewBox="0 0 24 24" fill="none">
  <path d="M2.75 3.25L4.83 3.61L5.793 15.083C5.87 16.02 6.653 16.739 7.593 16.736H18.502C19.399 16.738 20.16 16.078 20.287 15.19L21.236 8.632C21.342 7.899 20.833 7.219 20.101 7.113C20.037 7.104 5.164 7.099 5.164 7.099" stroke="#D7D7D7" stroke-width="2" stroke-linecap="round"/>
  <path fill-rule="evenodd" clip-rule="evenodd" d="M13.3252 10.7951C13.3252 10.3533 13.6834 9.99512 14.1252 9.99512H16.8982C17.34 9.99512 17.6982 10.3533 17.6982 10.7951C17.6982 11.2369 17.34 11.5951 16.8982 11.5951H14.1252C13.6834 11.5951 13.3252 11.2369 13.3252 10.7951Z" fill="#D7D7D7"/>
  <path fill-rule="evenodd" clip-rule="evenodd" d="M7.50821 20.4994C7.50822 20.4993 7.50823 20.4993 7.50823 20.4993C7.50823 20.4995 7.50823 20.4996 7.50822 20.4996C7.50822 20.4996 7.5082 20.4995 7.50816 20.4993C7.50808 20.4989 7.5079 20.4982 7.50752 20.4973C7.50699 20.496 7.50646 20.4954 7.50621 20.4951C7.50595 20.4949 7.50516 20.4942 7.50347 20.4935C7.50182 20.4928 7.50046 20.4926 7.50006 20.4925C7.50003 20.4925 7.50002 20.4925 7.5 20.4925C7.49998 20.4925 7.49997 20.4925 7.49994 20.4925C7.49954 20.4926 7.49818 20.4928 7.49653 20.4935C7.49484 20.4942 7.49405 20.4949 7.49379 20.4951C7.49354 20.4954 7.49301 20.496 7.49248 20.4973C7.4921 20.4982 7.49192 20.4989 7.49184 20.4993C7.49183 20.4994 7.49181 20.4995 7.49181 20.4995C7.49188 20.5 7.49209 20.5012 7.4927 20.5027C7.49332 20.5042 7.49391 20.5048 7.49413 20.505C7.49436 20.5052 7.49507 20.5059 7.49668 20.5066C7.49824 20.5072 7.49955 20.5074 7.49994 20.5075C7.49997 20.5075 7.49998 20.5075 7.5 20.5075C7.50002 20.5075 7.50003 20.5075 7.50006 20.5075C7.50045 20.5074 7.50176 20.5072 7.50332 20.5066C7.50493 20.5059 7.50564 20.5052 7.50587 20.505C7.50609 20.5048 7.50668 20.5042 7.5073 20.5027C7.50797 20.5011 7.50816 20.4997 7.50821 20.4994ZM6 20.4993C6 19.6728 6.66991 19 7.5 19C8.33009 19 9 19.6728 9 20.4993C9 21.3263 8.33099 22 7.5 22C6.66901 22 6 21.3263 6 20.4993Z" fill="#D7D7D7"/>
  <path fill-rule="evenodd" clip-rule="evenodd" d="M18.5075 20.4993C18.5075 20.4993 18.5075 20.4992 18.5075 20.4993C18.5075 20.4989 18.5072 20.4982 18.5068 20.4973C18.5063 20.496 18.5058 20.4954 18.5055 20.4951C18.5053 20.4949 18.5045 20.4942 18.5028 20.4935C18.5011 20.4928 18.4998 20.4926 18.4994 20.4925C18.499 20.4926 18.4978 20.4927 18.4964 20.4933C18.4951 20.4939 18.4945 20.4944 18.4945 20.4945C18.4944 20.4945 18.4939 20.4951 18.4933 20.4964C18.4927 20.4978 18.4926 20.4989 18.4925 20.4993C18.4925 20.4991 18.4925 20.4997 18.4927 20.5007L18.4935 20.5035C18.4942 20.5051 18.4948 20.5056 18.4948 20.5057C18.4949 20.5057 18.4953 20.5062 18.4966 20.5067C18.4978 20.5073 18.4989 20.5074 18.4993 20.5075C18.4993 20.5075 18.4993 20.5075 18.4993 20.5075M17 20.4993C17 19.6728 17.6696 19 18.4993 19C19.3272 19 20 19.671 20 20.4993C20 21.3281 19.3281 22 18.4993 22C17.6687 22 17 21.3263 17 20.4993Z" fill="#D7D7D7"/>
</svg>