<svg xmlns="http://www.w3.org/2000/svg" width="24" height="24" viewBox="0 0 24 24" fill="none">
  <path d="M8.999 7.47905L8.07702 7.09182V7.09182L8.999 7.47905ZM10.1222 7.38723C10.336 6.87804 10.0966 6.29188 9.58743 6.07802C9.07823 5.86416 8.49208 6.10357 8.27822 6.61277L10.1222 7.38723ZM15.0014 7.47905L14.0794 7.86628V7.86628L15.0014 7.47905ZM15.7222 6.61277C15.5083 6.10357 14.9222 5.86416 14.413 6.07802C13.9038 6.29188 13.6644 6.87804 13.8782 7.38723L15.7222 6.61277ZM12.7153 12.3723L12.5395 11.3879H12.5395L12.7153 12.3723ZM12.6043 12.3921L12.7801 13.3766H12.7801L12.6043 12.3921ZM11.3961 12.3921L11.5719 11.4077L11.5719 11.4077L11.3961 12.3921ZM11.2851 12.3723L11.1093 13.3567L11.1094 13.3567L11.2851 12.3723ZM8.76493 9.92729L7.78627 10.1328L8.76493 9.92729ZM15.2355 9.92729L14.2568 9.72177L15.2355 9.92729ZM9.92098 7.86628L10.1222 7.38723L8.27822 6.61277L8.07702 7.09182L9.92098 7.86628ZM15.9234 7.09182L15.7222 6.61277L13.8782 7.38723L14.0794 7.86628L15.9234 7.09182ZM12.5395 11.3879L12.4285 11.4077L12.7801 13.3766L12.891 13.3567L12.5395 11.3879ZM11.5719 11.4077L11.4609 11.3879L11.1094 13.3567L11.2203 13.3766L11.5719 11.4077ZM9.74358 9.72177C9.61293 9.09961 9.6748 8.45241 9.92098 7.86628L8.07702 7.09182C7.67355 8.05244 7.57214 9.11314 7.78627 10.1328L9.74358 9.72177ZM16.2141 10.1328C16.4283 9.11314 16.3268 8.05244 15.9234 7.09182L14.0794 7.86628C14.3256 8.45242 14.3875 9.09961 14.2568 9.72177L16.2141 10.1328ZM12.4285 11.4077C12.1452 11.4583 11.8552 11.4583 11.5719 11.4077L11.2203 13.3766C11.7361 13.4687 12.2642 13.4687 12.7801 13.3766L12.4285 11.4077ZM7.78627 10.1328C8.13311 11.7844 9.44798 13.0601 11.1093 13.3567L11.4609 11.3879C10.6023 11.2346 9.92283 10.5753 9.74358 9.72177L7.78627 10.1328ZM14.2568 9.72177C14.0776 10.5753 13.3981 11.2346 12.5395 11.3879L12.891 13.3567C14.5524 13.0601 15.8673 11.7844 16.2141 10.1328L14.2568 9.72177Z" fill="#D7D7D7"/>
  <path d="M20.2209 15.1432C19.6508 17.6506 17.7018 19.6206 15.2025 20.2254C13.102 20.7336 10.8983 20.7336 8.7979 20.2254C6.29861 19.6206 4.34961 17.6506 3.77943 15.1432C3.26999 12.9029 3.39389 10.565 4.13727 8.39108L4.24771 8.06811C5.06566 5.6761 7.109 3.91037 9.59434 3.44791L10.2749 3.32126C11.4153 3.10906 12.5851 3.10906 13.7255 3.32126L14.406 3.4479C16.8914 3.91037 18.9347 5.6761 19.7527 8.06813L19.8631 8.39109C20.6065 10.565 20.7304 12.9029 20.2209 15.1432Z" stroke="#D7D7D7" stroke-width="2"/>
</svg>