<svg width="24" height="24" viewBox="0 0 24 24" fill="none" xmlns="http://www.w3.org/2000/svg">
<g id="COCO/Line/&#226;&#128;&#140;Bag - 2">
<path id="Vector" d="M8.99875 7.47905L8.07677 7.09182V7.09182L8.99875 7.47905ZM10.1219 7.38723C10.3358 6.87804 10.0964 6.29188 9.58719 6.07802C9.07799 5.86416 8.49183 6.10357 8.27797 6.61277L10.1219 7.38723ZM15.0012 7.47905L14.0792 7.86628V7.86628L15.0012 7.47905ZM15.7219 6.61277C15.5081 6.10357 14.9219 5.86416 14.4127 6.07802C13.9035 6.29188 13.6641 6.87804 13.878 7.38723L15.7219 6.61277ZM12.715 12.3723L12.5392 11.3879H12.5392L12.715 12.3723ZM12.6041 12.3921L12.7799 13.3766H12.7799L12.6041 12.3921ZM11.3958 12.3921L11.5716 11.4077L11.5716 11.4077L11.3958 12.3921ZM11.2849 12.3723L11.1091 13.3567L11.1091 13.3567L11.2849 12.3723ZM8.76468 9.92729L7.78603 10.1328L8.76468 9.92729ZM15.2352 9.92729L14.2566 9.72177L15.2352 9.92729ZM9.92074 7.86628L10.1219 7.38723L8.27797 6.61277L8.07677 7.09182L9.92074 7.86628ZM15.9231 7.09182L15.7219 6.61277L13.878 7.38723L14.0792 7.86628L15.9231 7.09182ZM12.5392 11.3879L12.4283 11.4077L12.7799 13.3766L12.8908 13.3567L12.5392 11.3879ZM11.5716 11.4077L11.4607 11.3879L11.1091 13.3567L11.22 13.3766L11.5716 11.4077ZM9.74334 9.72177C9.61268 9.09961 9.67456 8.45241 9.92074 7.86628L8.07677 7.09182C7.67331 8.05244 7.5719 9.11314 7.78603 10.1328L9.74334 9.72177ZM16.2139 10.1328C16.428 9.11314 16.3266 8.05244 15.9231 7.09182L14.0792 7.86628C14.3253 8.45242 14.3872 9.09961 14.2566 9.72177L16.2139 10.1328ZM12.4283 11.4077C12.145 11.4583 11.8549 11.4583 11.5716 11.4077L11.22 13.3766C11.7359 13.4687 12.264 13.4687 12.7799 13.3766L12.4283 11.4077ZM7.78603 10.1328C8.13287 11.7844 9.44774 13.0601 11.1091 13.3567L11.4607 11.3879C10.6021 11.2346 9.92258 10.5753 9.74334 9.72177L7.78603 10.1328ZM14.2566 9.72177C14.0773 10.5753 13.3978 11.2346 12.5392 11.3879L12.8908 13.3567C14.5522 13.0601 15.867 11.7844 16.2139 10.1328L14.2566 9.72177Z" fill="#D7D7D7"/>
<path id="Vector_2" d="M20.2209 15.1432C19.6508 17.6506 17.7018 19.6206 15.2025 20.2254C13.102 20.7336 10.8983 20.7336 8.7979 20.2254C6.29861 19.6206 4.34961 17.6506 3.77943 15.1432C3.26999 12.9029 3.39389 10.565 4.13727 8.39108L4.24771 8.06811C5.06566 5.6761 7.109 3.91037 9.59434 3.44791L10.2749 3.32126C11.4153 3.10906 12.5851 3.10906 13.7255 3.32126L14.406 3.4479C16.8914 3.91037 18.9347 5.6761 19.7527 8.06813L19.8631 8.39109C20.6065 10.565 20.7304 12.9029 20.2209 15.1432Z" stroke="#D7D7D7" stroke-width="2"/>
</g>
</svg>
