<svg width="24" height="24" viewBox="0 0 24 24" fill="none" xmlns="http://www.w3.org/2000/svg">
<g id="COCO/Line/Menu">
<path id="Vector" d="M4.22728 4.46531C4.53077 3.96216 5.0556 3.63348 5.64076 3.5801L9.97546 3.18468C11.3224 3.06182 12.6776 3.06182 14.0246 3.18468L18.3592 3.5801C18.9444 3.63348 19.4692 3.96216 19.7727 4.46531V4.46531C20.5276 5.71676 20.5276 7.28324 19.7727 8.53469V8.53469C19.4692 9.03784 18.9444 9.36653 18.3592 9.41991L14.0245 9.81532C12.6776 9.93818 11.3224 9.93818 9.97546 9.81532L5.64076 9.4199C5.0556 9.36653 4.53077 9.03784 4.22728 8.53469V8.53469C3.47243 7.28325 3.47243 5.71676 4.22728 4.46531V4.46531Z" stroke="#D7D7D7" stroke-width="2"/>
<path id="Vector_2" d="M4.22728 15.4653C4.53077 14.9622 5.0556 14.6335 5.64076 14.5801L9.97546 14.1847C11.3224 14.0618 12.6776 14.0618 14.0246 14.1847L18.3592 14.5801C18.9444 14.6335 19.4692 14.9622 19.7727 15.4653V15.4653C20.5276 16.7168 20.5276 18.2832 19.7727 19.5347V19.5347C19.4692 20.0378 18.9444 20.3665 18.3592 20.4199L14.0245 20.8153C12.6776 20.9382 11.3224 20.9382 9.97546 20.8153L5.64076 20.4199C5.0556 20.3665 4.53077 20.0378 4.22728 19.5347V19.5347C3.47243 18.2832 3.47243 16.7168 4.22728 15.4653V15.4653Z" stroke="#D7D7D7" stroke-width="2"/>
</g>
</svg>
