<svg width="36" height="36" viewBox="0 0 36 36" fill="none" xmlns="http://www.w3.org/2000/svg">
<g id="COCO/Bold/iBaza">
<path id="Subtract" fill-rule="evenodd" clip-rule="evenodd" d="M15.0297 9.3437C16.9834 8.88543 19.0166 8.88543 20.9703 9.3437C23.7916 10.0055 25.9945 12.2084 26.6563 15.0297C27.1146 16.9834 27.1146 19.0166 26.6563 20.9703C25.9945 23.7916 23.7916 25.9945 20.9703 26.6563C19.0166 27.1146 16.9834 27.1146 15.0298 26.6563C12.2084 25.9945 10.0055 23.7916 9.3437 20.9703C8.88543 19.0166 8.88543 16.9834 9.3437 15.0297C10.0055 12.2084 12.2084 10.0055 15.0297 9.3437ZM12.9766 17.8974C12.9766 17.6709 13.1602 17.4872 13.3868 17.4872H15.0278C15.2544 17.4872 15.4381 17.6709 15.4381 17.8974V21.5898C15.4381 21.8163 15.2544 22 15.0278 22H13.3868C13.1602 22 12.9766 21.8163 12.9766 21.5898V17.8974ZM14.207 14C13.5272 14 12.9762 14.551 12.9762 15.2307C12.9762 15.9105 13.5272 16.4615 14.207 16.4615C14.8867 16.4615 15.4377 15.9105 15.4377 15.2307C15.4377 14.551 14.8867 14 14.207 14ZM16.4641 14.4102C16.4641 14.1836 16.6478 14 16.8744 14H20.3615C21.3245 14 22.1051 14.7806 22.1051 15.7435C22.1051 15.8208 22.1001 15.8968 22.0904 15.9714C22.663 16.4605 23.0261 17.1878 23.0261 18C23.0261 18.812 22.6631 19.5393 22.0906 20.0284C22.1003 20.103 22.1054 20.1791 22.1054 20.2564C22.1054 21.2194 21.3247 22 20.3618 22H16.8746C16.648 22 16.4643 21.8163 16.4643 21.5897V18.9231C16.4643 18.6965 16.648 18.5128 16.8746 18.5128H20.3618C20.9313 18.5128 21.4371 18.7859 21.7553 19.2083C22.0358 18.8844 22.2055 18.462 22.2055 18C22.2055 17.5378 22.0358 17.1154 21.7551 16.7916C21.437 17.214 20.9311 17.4871 20.3615 17.4871H16.8744C16.6478 17.4871 16.4641 17.3035 16.4641 17.0769V14.4102Z" fill="#51C192"/>
</g>
</svg>
