<svg width="36" height="36" viewBox="0 0 36 36" fill="none" xmlns="http://www.w3.org/2000/svg">
<g id="COCO/Bold/Info">
<rect width="36" height="36" rx="12" fill="#FFF7D3"/>
<g id="Vector">
<path d="M12.1107 9.15205C12.4332 9.05136 12.7677 9 13.1046 9C14.7236 9 15.9231 10.4257 15.9231 12.0379L15.9231 15.6544C15.9231 17.2667 14.7236 18.6923 13.1046 18.6923C12.7677 18.6923 12.4332 18.641 12.1107 18.5403L11.8642 18.4633C11.78 18.437 11.6972 18.4079 11.6158 18.376C12.9001 20.9841 15.0159 23.0999 17.624 24.3842C17.5921 24.3028 17.563 24.22 17.5367 24.1358L17.4597 23.8893C17.359 23.5668 17.3077 23.2323 17.3077 22.8954C17.3077 21.2764 18.7333 20.0769 20.3456 20.0769H23.9621C25.5743 20.0769 27 21.2764 27 22.8954C27 23.2323 26.9486 23.5668 26.8479 23.8893L26.771 24.1358C26.3226 25.5717 25.0401 26.6116 23.506 26.882C22.6128 27.0393 21.6949 27.0394 20.8017 26.882C20.7665 26.8758 20.7315 26.8692 20.6966 26.8622C14.8428 25.7359 10.264 21.1571 9.13782 15.3033C9.13083 15.2684 9.12424 15.2334 9.11805 15.1983C8.96065 14.3051 8.96065 13.3872 9.11805 12.494C9.38837 10.9599 10.4283 9.67739 11.8642 9.22902L12.1107 9.15205Z" fill="#F0CB23"/>
<path d="M19.1128 10.5911C20.8866 10.0857 22.8181 10.5085 24.1548 11.8452C25.4916 13.1819 25.9143 15.1135 25.4089 16.8872C25.3041 17.255 25.5173 17.638 25.885 17.7428C26.2527 17.8475 26.6357 17.6344 26.7405 17.2667C27.3727 15.0478 26.8531 12.5853 25.1339 10.8661C23.4147 9.14689 20.9523 8.62729 18.7334 9.25951C18.3656 9.36428 18.1525 9.74731 18.2573 10.115C18.362 10.4827 18.7451 10.6959 19.1128 10.5911Z" fill="#F0CB23"/>
<path d="M20.8462 13.1074C21.3133 13.0143 21.905 13.1712 22.3669 13.6331C22.8288 14.095 22.9857 14.6867 22.8927 15.1538C22.818 15.5288 23.0614 15.8933 23.4364 15.968C23.8114 16.0427 24.1759 15.7993 24.2506 15.4243C24.4416 14.4654 24.1065 13.4145 23.346 12.654C22.5855 11.8935 21.5347 11.5584 20.5757 11.7494C20.2008 11.8241 19.9573 12.1886 20.032 12.5636C20.1067 12.9386 20.4712 13.1821 20.8462 13.1074Z" fill="#F0CB23"/>
</g>
</g>
</svg>
