<svg width="36" height="36" viewBox="0 0 36 36" fill="none" xmlns="http://www.w3.org/2000/svg">
<g id="COCO/Bold/Info">
<rect width="36" height="36" rx="12" fill="#E5F6FE"/>
<path id="Vector" fill-rule="evenodd" clip-rule="evenodd" d="M15.0297 9.3437C16.9834 8.88543 19.0166 8.88543 20.9703 9.3437C23.7916 10.0055 25.9945 12.2084 26.6563 15.0297C27.1146 16.9834 27.1146 19.0166 26.6563 20.9703C25.9945 23.7916 23.7916 25.9945 20.9703 26.6563C19.0166 27.1146 16.9834 27.1146 15.0298 26.6563C12.2084 25.9945 10.0055 23.7916 9.3437 20.9703C8.88543 19.0166 8.88543 16.9834 9.3437 15.0297C10.0055 12.2084 12.2084 10.0055 15.0297 9.3437ZM18 16.0854C18.5287 16.0854 18.9573 15.6568 18.9573 15.1281C18.9573 14.5994 18.5287 14.1708 18 14.1708C17.4713 14.1708 17.0427 14.5994 17.0427 15.1281C17.0427 15.6568 17.4713 16.0854 18 16.0854ZM18 16.8034C18.3965 16.8034 18.7179 17.1248 18.7179 17.5213V21.3505C18.7179 21.747 18.3965 22.0684 18 22.0684C17.6035 22.0684 17.282 21.747 17.282 21.3505V17.5213C17.282 17.1248 17.6035 16.8034 18 16.8034Z" fill="#1DA4EA"/>
</g>
</svg>
