<svg width="36" height="36" viewBox="0 0 36 36" fill="none" xmlns="http://www.w3.org/2000/svg">
<g id="COCO/Bold/Info">
<rect width="36" height="36" rx="12" fill="#FBE5FE"/>
<path id="Vector" d="M20.857 10.9259C19.7901 8.35805 16.2099 8.35804 15.143 10.9259L14.5837 12.2719C14.361 12.8078 13.8757 13.1723 13.3211 13.2351L11.7604 13.4118C9.12208 13.7105 8.0693 16.9949 9.96629 18.8289L11.2914 20.11C11.6829 20.4885 11.8589 21.0499 11.751 21.596L11.431 23.2142C10.8998 25.901 13.795 27.9982 16.1279 26.5005L17.1745 25.8286C17.6797 25.5043 18.3203 25.5043 18.8255 25.8286L19.8721 26.5005C22.205 27.9982 25.1002 25.901 24.569 23.2142L24.249 21.596C24.1411 21.0499 24.3171 20.4885 24.7086 20.11L26.0337 18.8289C27.9307 16.9949 26.8779 13.7105 24.2396 13.4118L22.6789 13.2351C22.1243 13.1723 21.639 12.8078 21.4163 12.2719L20.857 10.9259Z" fill="#B151C1"/>
</g>
</svg>
