<svg width="36" height="36" viewBox="0 0 36 36" fill="none" xmlns="http://www.w3.org/2000/svg">
<g id="COCO/Bold/Note">
<rect width="36" height="36" rx="12" fill="#FFF0E5"/>
<path id="Vector" fill-rule="evenodd" clip-rule="evenodd" d="M22.5231 21.6998C23.1223 21.6109 23.8942 21.5936 24.9539 21.5905C24.2002 23.4179 22.6057 24.7978 20.6423 25.2583L20.6378 25.2594C20.6476 24.4971 20.6749 23.9092 20.7496 23.4344C20.8472 22.8132 21.0141 22.4699 21.2634 22.2207C21.5185 21.9656 21.8724 21.7964 22.5231 21.6998ZM20.9703 9.3437C19.0166 8.88543 16.9834 8.88543 15.0297 9.3437C12.2084 10.0055 10.0055 12.2084 9.3437 15.0297C8.88543 16.9834 8.88543 19.0166 9.3437 20.9703C10.0055 23.7916 12.2084 25.9945 15.0298 26.6563C16.6707 27.0412 18.3677 27.1028 20.0266 26.8411C20.3428 26.7913 20.6575 26.7297 20.9703 26.6563C23.7916 25.9945 25.9945 23.7916 26.6563 20.9703C27.1146 19.0166 27.1146 16.9834 26.6563 15.0297C25.9945 12.2084 23.7916 10.0055 20.9703 9.3437ZM14.5537 15.1281C14.5537 14.8109 14.8109 14.5537 15.1281 14.5537H18C18.3172 14.5537 18.5743 14.8109 18.5743 15.1281C18.5743 15.4453 18.3172 15.7025 18 15.7025H15.1281C14.8109 15.7025 14.5537 15.4453 14.5537 15.1281ZM14.5537 18C14.5537 17.6828 14.8109 17.4256 15.1281 17.4256H19.9145C20.2318 17.4256 20.4889 17.6828 20.4889 18C20.4889 18.3172 20.2318 18.5743 19.9145 18.5743H15.1281C14.8109 18.5743 14.5537 18.3172 14.5537 18Z" fill="#FD6C23"/>
</g>
</svg>
