<svg width="36" height="36" viewBox="0 0 36 36" fill="none" xmlns="http://www.w3.org/2000/svg">
<g id="COCO/Twocolors/Notification - 3">
<g id="Group 36276">
<path id="Vector" d="M13.5132 26.855L13.597 26.1097L12.6996 26.0088L12.7652 26.9094L13.5132 26.855ZM22.4859 26.855L23.2339 26.9094L23.2994 26.0088L22.4021 26.1097L22.4859 26.855ZM22.3498 27.7157L23.0781 27.8948V27.8948L22.3498 27.7157ZM22.2268 28.2157L21.4985 28.0367V28.0367L22.2268 28.2157ZM19.0554 31.3753L19.2298 32.1048H19.2298L19.0554 31.3753ZM16.9437 31.3753L16.7692 32.1048H16.7692L16.9437 31.3753ZM13.7723 28.2157L14.5006 28.0367L13.7723 28.2157ZM13.6493 27.7157L12.921 27.8948V27.8948L13.6493 27.7157ZM13.4294 27.6003C16.4666 27.9417 19.5324 27.9417 22.5697 27.6003L22.4021 26.1097C19.4762 26.4386 16.5229 26.4386 13.597 26.1097L13.4294 27.6003ZM23.0781 27.8948C23.1577 27.5711 23.2097 27.2414 23.2339 26.9094L21.7379 26.8006C21.7198 27.0486 21.6809 27.2948 21.6214 27.5366L23.0781 27.8948ZM22.9551 28.3948L23.0781 27.8948L21.6214 27.5366L21.4985 28.0367L22.9551 28.3948ZM19.2298 32.1048C21.0668 31.6653 22.5032 30.2326 22.9551 28.3948L21.4985 28.0367C21.18 29.3321 20.1688 30.3378 18.8809 30.6459L19.2298 32.1048ZM16.7692 32.1048C17.5781 32.2983 18.421 32.2983 19.2298 32.1048L18.8809 30.6459C18.3014 30.7845 17.6977 30.7845 17.1182 30.6459L16.7692 32.1048ZM13.044 28.3948C13.4959 30.2326 14.9323 31.6653 16.7692 32.1048L17.1182 30.6459C15.8303 30.3378 14.8191 29.3321 14.5006 28.0367L13.044 28.3948ZM12.921 27.8948L13.044 28.3948L14.5006 28.0367L14.3776 27.5366L12.921 27.8948ZM12.7652 26.9094C12.7893 27.2414 12.8414 27.5711 12.921 27.8948L14.3776 27.5366C14.3182 27.2948 14.2793 27.0486 14.2612 26.8006L12.7652 26.9094Z" fill="#383838"/>
<path id="Vector_2" d="M18.75 4.5C18.75 4.08579 18.4142 3.75 18 3.75C17.5858 3.75 17.25 4.08579 17.25 4.5H18.75ZM17.25 6.00711C17.25 6.42132 17.5858 6.75711 18 6.75711C18.4142 6.75711 18.75 6.42132 18.75 6.00711H17.25ZM17.25 4.5V6.00711H18.75V4.5H17.25Z" fill="#383838"/>
<path id="Vector_3" d="M9.0417 12.9488L9.76559 13.1449L9.76559 13.1449L9.0417 12.9488ZM15.2376 6.45326L15.0063 5.73981V5.73981L15.2376 6.45326ZM8.97445 13.197L8.25055 13.0008L8.25055 13.0008L8.97445 13.197ZM8.68434 19.3011L9.42358 19.1745L9.42358 19.1745L8.68434 19.3011ZM8.7181 19.4983L7.97886 19.6248L7.97886 19.6248L8.7181 19.4983ZM9.43139 26.1857L9.5811 25.4508H9.5811L9.43139 26.1857ZM9.98278 26.298L9.83306 27.0329H9.83306L9.98278 26.298ZM26.0172 26.298L26.1669 27.0329H26.1669L26.0172 26.298ZM26.5686 26.1857L26.4189 25.4508L26.5686 26.1857ZM27.2884 19.4605L28.0276 19.587L27.2884 19.4605ZM27.3242 19.2513L26.5849 19.1247V19.1247L27.3242 19.2513ZM27.0626 13.2393L26.3371 13.4296V13.4296L27.0626 13.2393ZM26.969 12.8824L27.6944 12.6921V12.6921L26.969 12.8824ZM20.9506 6.46248L21.1858 5.75032L20.9506 6.46248ZM27.5295 19.9511L27.1633 20.6056L27.5295 19.9511ZM8.50196 19.9337L8.86112 20.5921L8.50196 19.9337ZM9.76559 13.1449C10.5303 10.3226 12.6955 8.06569 15.4688 7.16671L15.0063 5.73981C11.7545 6.79389 9.21605 9.43745 8.3178 12.7527L9.76559 13.1449ZM9.69835 13.3931L9.76559 13.1449L8.3178 12.7527L8.25055 13.0008L9.69835 13.3931ZM9.42358 19.1745C9.09413 17.2503 9.18792 15.277 9.69835 13.3931L8.25055 13.0008C7.68312 15.0951 7.57887 17.2887 7.9451 19.4276L9.42358 19.1745ZM9.45734 19.3717L9.42358 19.1745L7.9451 19.4276L7.97886 19.6248L9.45734 19.3717ZM7.5 22.8905C7.5 21.8976 8.04999 21.0346 8.86112 20.5921L8.14279 19.2753C6.86689 19.9713 6 21.3295 6 22.8905H7.5ZM9.5811 25.4508C8.37271 25.2046 7.5 24.1357 7.5 22.8905H6C6 24.844 7.36993 26.5311 9.28167 26.9206L9.5811 25.4508ZM10.1325 25.5631L9.5811 25.4508L9.28167 26.9206L9.83306 27.0329L10.1325 25.5631ZM25.8675 25.5631C20.6753 26.6209 15.3247 26.6209 10.1325 25.5631L9.83306 27.0329C15.2228 28.1309 20.7772 28.1309 26.1669 27.0329L25.8675 25.5631ZM26.4189 25.4508L25.8675 25.5631L26.1669 27.0329L26.7183 26.9206L26.4189 25.4508ZM28.5 22.8905C28.5 24.1357 27.6273 25.2046 26.4189 25.4508L26.7183 26.9206C28.6301 26.5311 30 24.844 30 22.8905H28.5ZM27.1633 20.6056C27.9611 21.052 28.5 21.9076 28.5 22.8905H30C30 21.3453 29.1505 19.9987 27.8957 19.2966L27.1633 20.6056ZM26.5849 19.1247L26.5491 19.3339L28.0276 19.587L28.0634 19.3779L26.5849 19.1247ZM26.3371 13.4296C26.8248 15.2882 26.9093 17.2304 26.5849 19.1247L28.0634 19.3779C28.4238 17.2728 28.3299 15.1145 27.788 13.049L26.3371 13.4296ZM26.2435 13.0728L26.3371 13.4296L27.788 13.049L27.6944 12.6921L26.2435 13.0728ZM20.7154 7.17465C23.4321 8.07187 25.5137 10.2911 26.2435 13.0728L27.6944 12.6921C26.8362 9.42128 24.3873 6.80766 21.1858 5.75032L20.7154 7.17465ZM15.4688 7.16671C17.1704 6.61516 19.0203 6.61482 20.7154 7.17465L21.1858 5.75032C19.1845 5.08937 17.0078 5.09102 15.0063 5.73981L15.4688 7.16671ZM27.8957 19.2966C27.9811 19.3444 28.0509 19.4513 28.0276 19.587L26.5491 19.3339C26.4584 19.8638 26.7301 20.3632 27.1633 20.6056L27.8957 19.2966ZM7.97886 19.6248C7.95185 19.4671 8.03307 19.3351 8.14279 19.2753L8.86112 20.5921C9.28265 20.3622 9.5445 19.8808 9.45734 19.3717L7.97886 19.6248Z" fill="#383838"/>
</g>
</g>
</svg>
