<svg width="36" height="36" viewBox="0 0 36 36" fill="none" xmlns="http://www.w3.org/2000/svg">
<g id="COCO/Twocolors/Setting">
<g id="Group 36277">
<path id="Vector" d="M20.6276 7.03993C20.6276 5.78758 19.7124 4.72325 18.4741 4.5357C18.1598 4.4881 17.8402 4.4881 17.5259 4.5357C16.2877 4.72325 15.3724 5.78759 15.3724 7.03995V8.81095C14.6649 9.01287 13.991 9.29427 13.3609 9.64489L12.1081 8.39206C11.2225 7.50652 9.82273 7.40111 8.81456 8.14406C8.55867 8.33263 8.33263 8.55867 8.14405 8.81456C7.4011 9.82274 7.50651 11.2225 8.39206 12.1081L9.64487 13.3609C9.29426 13.991 9.01286 14.6649 8.81095 15.3724H7.03995C5.78759 15.3724 4.72325 16.2877 4.5357 17.5259C4.4881 17.8402 4.4881 18.1598 4.5357 18.4741C4.72325 19.7124 5.78758 20.6276 7.03993 20.6276H8.81094C9.01286 21.3351 9.29426 22.009 9.64487 22.6391L8.39206 23.8919C7.50651 24.7775 7.40111 26.1773 8.14406 27.1855C8.33263 27.4413 8.55867 27.6674 8.81457 27.856C9.82274 28.5989 11.2225 28.4935 12.1081 27.608L13.3609 26.3551C13.991 26.7058 14.6649 26.9872 15.3724 27.1891V28.9601C15.3724 30.2124 16.2876 31.2768 17.5259 31.4643C17.8402 31.5119 18.1598 31.5119 18.4741 31.4643C19.7124 31.2768 20.6276 30.2124 20.6276 28.9601V27.1891C21.3351 26.9872 22.009 26.7058 22.6391 26.3551L23.8919 27.608C24.7775 28.4935 26.1773 28.5989 27.1854 27.856C27.4413 27.6674 27.6674 27.4414 27.856 27.1855C28.5989 26.1773 28.4935 24.7775 27.608 23.8919L26.3551 22.6391C26.7058 22.009 26.9872 21.3351 27.1891 20.6276H28.9601C30.2124 20.6276 31.2768 19.7124 31.4643 18.4741C31.5119 18.1598 31.5119 17.8402 31.4643 17.5259C31.2768 16.2877 30.2124 15.3724 28.9601 15.3724H27.1891C26.9872 14.6649 26.7058 13.991 26.3551 13.3609L27.608 12.1081C28.4935 11.2225 28.5989 9.82274 27.856 8.81456C27.6674 8.55867 27.4414 8.33263 27.1855 8.14405C26.1773 7.4011 24.7775 7.50651 23.8919 8.39206L22.6391 9.64488C22.009 9.29426 21.3351 9.01286 20.6276 8.81095V7.03993Z" stroke="#383838" stroke-width="1.5" stroke-linecap="round" stroke-linejoin="round"/>
<path id="Vector_2" d="M14.25 18C14.25 15.9289 15.9289 14.25 18 14.25C20.0711 14.25 21.75 15.9289 21.75 18C21.75 20.0711 20.0711 21.75 18 21.75C15.9289 21.75 14.25 20.0711 14.25 18Z" stroke="#383838" stroke-width="1.5"/>
</g>
</g>
</svg>
