<svg width="24" height="24" viewBox="0 0 24 24" fill="none" xmlns="http://www.w3.org/2000/svg">
<rect x="0.25" y="0.25" width="23.5" height="23.5" rx="7.75" stroke="#D5D5D5" stroke-width="0.5"/>
<path fill-rule="evenodd" clip-rule="evenodd" d="M15.5395 3C14.6303 3 13.7583 3.3599 13.1154 4.00052L9.07222 8.02925C7.21527 9.87957 5.89791 12.198 5.26098 14.7366L5.06561 15.5153C4.86299 16.3229 5.59714 17.0544 6.40764 16.8525L7.1891 16.6578C9.73681 16.0232 12.0635 14.7105 13.9205 12.8602L17.9636 8.83146C18.6066 8.19084 18.9678 7.32196 18.9678 6.41599C18.9678 4.52939 17.4329 3 15.5395 3ZM14.3776 7.57378C14.9965 8.19047 15.714 8.45317 16.2462 8.36088L16.8688 7.74049C17.2213 7.38921 17.4194 6.91278 17.4194 6.41599C17.4194 5.38149 16.5777 4.54286 15.5395 4.54286C15.041 4.54286 14.5628 4.7402 14.2103 5.09149L13.5877 5.71187C13.495 6.24217 13.7587 6.95709 14.3776 7.57378Z" fill="#383838"/>
<path fill-rule="evenodd" clip-rule="evenodd" d="M4 20.2286C4 19.8025 4.34662 19.4571 4.77419 19.4571H19.2258C19.6534 19.4571 20 19.8025 20 20.2286C20 20.6546 19.6534 21 19.2258 21H4.77419C4.34662 21 4 20.6546 4 20.2286Z" fill="#383838"/>
</svg>
