<svg width="18" height="18" viewBox="0 0 18 18" fill="none" xmlns="http://www.w3.org/2000/svg">
<path d="M1.76311 10.4842L2.73668 10.2558L1.76311 10.4842ZM1.76311 5.93667L2.73668 6.16503L1.76311 5.93667ZM14.6578 5.93667L15.6313 5.7083L14.6578 5.93667ZM14.6578 10.4842L15.6313 10.7126L14.6578 10.4842ZM10.4842 14.6578L10.2558 13.6842L10.4842 14.6578ZM5.93667 14.6578L5.7083 15.6313L5.93667 14.6578ZM5.93667 1.76311L5.7083 0.789532L5.93667 1.76311ZM10.4842 1.76311L10.7126 0.789532L10.4842 1.76311ZM15.7929 17.2071C16.1834 17.5976 16.8166 17.5976 17.2071 17.2071C17.5976 16.8166 17.5976 16.1834 17.2071 15.7929L15.7929 17.2071ZM2.73668 10.2558C2.42111 8.9105 2.42111 7.51038 2.73668 6.16503L0.789533 5.7083C0.403489 7.35405 0.403489 9.06682 0.789533 10.7126L2.73668 10.2558ZM13.6842 6.16504C13.9998 7.51038 13.9998 8.9105 13.6842 10.2558L15.6313 10.7126C16.0174 9.06682 16.0174 7.35406 15.6313 5.7083L13.6842 6.16504ZM10.2558 13.6842C8.9105 13.9998 7.51038 13.9998 6.16504 13.6842L5.7083 15.6313C7.35406 16.0174 9.06682 16.0174 10.7126 15.6313L10.2558 13.6842ZM6.16504 2.73668C7.51038 2.42111 8.9105 2.42111 10.2558 2.73668L10.7126 0.789532C9.06682 0.403489 7.35406 0.40349 5.7083 0.789532L6.16504 2.73668ZM6.16504 13.6842C4.46394 13.2852 3.13571 11.9569 2.73668 10.2558L0.789533 10.7126C1.36202 13.1532 3.26768 15.0589 5.7083 15.6313L6.16504 13.6842ZM10.7126 15.6313C13.1532 15.0589 15.0589 13.1532 15.6313 10.7126L13.6842 10.2558C13.2852 11.9569 11.9569 13.2852 10.2558 13.6842L10.7126 15.6313ZM10.2558 2.73668C11.9569 3.1357 13.2852 4.46394 13.6842 6.16504L15.6313 5.7083C15.0589 3.26768 13.1532 1.36202 10.7126 0.789532L10.2558 2.73668ZM5.7083 0.789532C3.26768 1.36202 1.36202 3.26768 0.789533 5.7083L2.73668 6.16503C3.13571 4.46394 4.46394 3.1357 6.16504 2.73668L5.7083 0.789532ZM12.7388 14.1531L15.7929 17.2071L17.2071 15.7929L14.1531 12.7388L12.7388 14.1531Z" fill="#9E9EA5"/>
</svg>
